<svg width="198" height="198" fill="none" xmlns="http://www.w3.org/2000/svg"><g filter="url(#filter0_d)"><path d="M96.8 17.449a4 4 0 014.4 0l13.773 9.07a4 4 0 002.435.652l16.462-.968a4.001 4.001 0 013.811 2.2l7.393 14.74a3.995 3.995 0 001.782 1.783l14.741 7.393a4 4 0 012.2 3.81l-.968 16.463a3.998 3.998 0 00.652 2.435l9.07 13.773a4 4 0 010 4.4l-9.07 13.773a3.998 3.998 0 00-.652 2.435l.968 16.462a4 4 0 01-2.2 3.811l-14.741 7.393a3.99 3.99 0 00-1.782 1.782l-7.393 14.741a4 4 0 01-3.811 2.2l-16.462-.968a3.998 3.998 0 00-2.435.652l-13.773 9.07a4 4 0 01-4.4 0l-13.773-9.07a3.998 3.998 0 00-2.435-.652l-16.463.968a4 4 0 01-3.81-2.2l-7.393-14.741a3.995 3.995 0 00-1.782-1.782l-14.741-7.393a4.001 4.001 0 01-2.2-3.811l.968-16.462a4 4 0 00-.652-2.435L25.449 93.2a4 4 0 010-4.4l9.07-13.773c.474-.72.703-1.574.652-2.435l-.968-16.462a4 4 0 012.2-3.81l14.74-7.394a4 4 0 001.783-1.782l7.393-14.741a4 4 0 013.81-2.2l16.463.968a4.005 4.005 0 002.435-.652l13.773-9.07z" fill="#fff"/></g><path d="M54.123 90.598a3.89 3.89 0 011.496-.121 3.4 3.4 0 011.326.427c.405.215.75.507 1.036.878.283.359.488.776.615 1.251.128.476.16.945.098 1.409-.062.464-.215.89-.459 1.278a3.534 3.534 0 01-.939 1.016 3.895 3.895 0 01-1.356.643l-4.607 1.234-2.935-10.953 7.39-1.98.535 2-5.303 1.42.582 2.174 2.522-.676zm-2.008 2.588l.792 2.956 2.52-.676c.441-.118.76-.346.954-.684.204-.353.247-.75.129-1.19-.118-.44-.352-.756-.702-.948-.34-.207-.732-.252-1.172-.134l-2.521.676zm15.525-1.551a3.58 3.58 0 01-.244 1.034c-.128.358-.316.7-.564 1.027a4.27 4.27 0 01-.89.854 3.49 3.49 0 01-1.19.561 4.024 4.024 0 01-1.632.102 4.55 4.55 0 01-1.507-.547 4.656 4.656 0 01-1.214-1.054 4.245 4.245 0 01-.741-1.515 4.114 4.114 0 01-.111-1.666 4.56 4.56 0 01.52-1.537c.271-.47.617-.874 1.036-1.21.428-.35.914-.599 1.459-.745a3.87 3.87 0 011.557-.1c.516.073.996.242 1.44.508a3.98 3.98 0 011.167 1.085A4.4 4.4 0 0167.482 90c.025.093.044.187.057.283l.03.253.035.27-5.563 1.49c.198.37.484.647.856.833.373.186.82.21 1.342.07.266-.072.479-.16.637-.264.17-.108.308-.22.414-.335.114-.13.202-.265.264-.406l2.086-.56zm-4.566-2.783c-.521.14-.91.405-1.165.797a2.134 2.134 0 00-.328 1.28l3.825-1.025a2.088 2.088 0 00-.941-.94c-.406-.215-.87-.252-1.39-.112zm10.555-.592c.242.072.468.173.677.303.18.113.357.265.532.454.183.174.312.4.387.679.087.324.1.656.043.995a2.33 2.33 0 01-.404.928 3.137 3.137 0 01-.812.795 4.033 4.033 0 01-1.218.531c-1.008.27-1.837.238-2.486-.098-.649-.335-1.125-.884-1.43-1.648l1.826-.489c.073.18.18.324.322.436.127.102.29.177.489.223.198.046.448.029.75-.052.394-.106.672-.273.834-.503.159-.242.209-.472.15-.693a.716.716 0 00-.427-.481c-.226-.102-.56-.093-1 .025l-.782.21-.42-1.565.783-.21c.347-.093.588-.238.722-.435a.733.733 0 00.111-.627c-.071-.266-.214-.452-.428-.556-.218-.115-.5-.127-.848-.033-.266.071-.468.175-.606.311a1.678 1.678 0 00-.286.393c-.07.156-.1.32-.092.491l-1.826.49c-.106-.767.034-1.451.42-2.051.394-.615 1.073-1.052 2.035-1.31a3.171 3.171 0 011.203-.098c.385.046.736.15 1.053.314.314.152.581.36.801.624.228.25.383.525.464.826.077.29.09.547.039.772-.043.21-.111.396-.205.558-.102.176-.225.34-.371.491zm4.944-5.518l2.086-.559 3.397 4.68.428-5.705 2.087-.559c-.177 1.613-.339 3.073-.486 4.38-.06.562-.124 1.113-.19 1.653-.055.536-.104 1.028-.146 1.474-.045.434-.084.799-.117 1.093a9.774 9.774 0 01-.065.52c-.07.529-.16.982-.27 1.359a3.45 3.45 0 01-.39.98 2.13 2.13 0 01-.591.643 2.622 2.622 0 01-1.115.43 1.118 1.118 0 01-.213.038.95.95 0 01-.223.004l-.442-1.652c.44-.118.75-.307.929-.566.19-.262.309-.561.356-.897l.057-.48-5.092-6.836zm11.846 1.112c.177.66.51 1.137.998 1.429.488.291 1.016.36 1.584.209.568-.153.99-.477 1.267-.973.277-.497.327-1.076.15-1.736-.177-.661-.51-1.137-.998-1.429-.488-.291-1.016-.361-1.584-.209-.568.152-.99.477-1.267.973-.277.497-.327 1.076-.15 1.736zm5.999-1.607c.152.568.184 1.13.098 1.688a4.211 4.211 0 01-.525 1.52c-.26.467-.604.876-1.031 1.226-.42.336-.902.577-1.447.723a4.025 4.025 0 01-1.63.102 4.55 4.55 0 01-1.508-.547 4.652 4.652 0 01-1.214-1.053 4.245 4.245 0 01-.741-1.516 4.114 4.114 0 01-.111-1.666 4.56 4.56 0 01.52-1.537 4.29 4.29 0 011.036-1.21c.428-.35.914-.599 1.459-.745a3.722 3.722 0 011.618-.08 4.005 4.005 0 011.503.53c.47.272.876.629 1.218 1.071.35.428.602.926.755 1.494zm5.954 2.784a3.75 3.75 0 01-1.364.123 3.215 3.215 0 01-1.208-.403 3.492 3.492 0 01-.95-.901 4.272 4.272 0 01-.602-1.348l-1.258-4.694 2-.536 1.187 4.433c.14.522.404.905.792 1.148.397.23.839.279 1.326.148.487-.13.839-.392 1.056-.786.226-.408.269-.873.13-1.395l-1.188-4.433 1.999-.536 2.143 7.998-1.478.396-.557-.69a4.328 4.328 0 01-.527.608 3.892 3.892 0 01-.629.504 3.322 3.322 0 01-.872.364zm4.368-11.886l1.739-.466.512 1.913 1.739-.466.489 1.825-1.739.466.886 3.304c.093.348.266.6.519.755.261.141.566.165.913.072l.226-.06.148-.077a.707.707 0 00.125-.09l.466 1.74c-.072.056-.157.11-.255.16-.182.111-.4.2-.655.27a3.195 3.195 0 01-1.147.102 2.656 2.656 0 01-1.01-.363 3.088 3.088 0 01-.799-.755 3.562 3.562 0 01-.508-1.131l-.908-3.39-1.217.325-.443-1.651.522-.14c.637-.171.871-.575.7-1.213l-.303-1.13zm11.109 7.739c-.476.127-.93.168-1.365.123a3.211 3.211 0 01-1.207-.403 3.489 3.489 0 01-.95-.901 4.266 4.266 0 01-.603-1.348l-1.258-4.694 1.999-.536 1.188 4.434c.14.521.404.904.792 1.148.397.229.839.278 1.326.148.487-.13.839-.393 1.056-.787.226-.408.269-.873.13-1.395l-1.188-4.433 1.999-.536 2.143 7.998-1.478.396-.557-.69a4.322 4.322 0 01-.527.608 3.898 3.898 0 01-.629.504 3.329 3.329 0 01-.871.364zm10.263-2.75a3.473 3.473 0 01-.972.13 3.877 3.877 0 01-.797-.122 3.13 3.13 0 01-.725-.272l-.138.876-1.478.396-2.935-10.954 2-.536.978 3.651c.125-.182.276-.36.454-.531a5.18 5.18 0 01.573-.433c.231-.161.514-.287.85-.377a3.479 3.479 0 011.509-.07c.505.077.976.255 1.411.536a4.01 4.01 0 011.162 1.068c.342.442.592.96.751 1.55.158.591.2 1.164.125 1.718a4.236 4.236 0 01-.468 1.523c-.24.45-.558.84-.954 1.17a3.653 3.653 0 01-1.346.677zm-3.356-3.48c.178.66.51 1.136.998 1.428.488.292 1.016.361 1.584.21.568-.153.991-.478 1.268-.974.276-.497.326-1.075.149-1.736-.177-.66-.509-1.137-.997-1.428-.488-.292-1.016-.362-1.584-.21-.568.153-.991.477-1.268.974-.277.496-.327 1.075-.15 1.735zm15.201-2.396a3.57 3.57 0 01-.244 1.034c-.128.358-.316.7-.564 1.027a4.253 4.253 0 01-.889.853 3.51 3.51 0 01-1.192.562 4.023 4.023 0 01-1.631.101 4.559 4.559 0 01-1.507-.546 4.67 4.67 0 01-1.214-1.054 4.243 4.243 0 01-.741-1.516 4.086 4.086 0 01-.111-1.666c.086-.557.26-1.07.52-1.537.271-.47.617-.873 1.036-1.209.428-.35.914-.599 1.459-.745a3.87 3.87 0 011.557-.1 3.8 3.8 0 011.441.508c.444.266.832.628 1.166 1.085a4.4 4.4 0 01.756 1.568c.024.093.044.187.057.283l.03.252c.014.096.025.186.035.27l-5.563 1.492c.198.369.484.646.856.832.373.186.82.209 1.342.07a2.187 2.187 0 001.051-.599 1.59 1.59 0 00.264-.406l2.086-.56zm-4.566-2.783c-.521.14-.91.405-1.165.796a2.134 2.134 0 00-.328 1.28l3.825-1.024a2.093 2.093 0 00-.941-.94c-.406-.215-.869-.252-1.391-.112zm-54.98 31.41l2.144 7.997-2 .536-1.351-5.042-2.04 5.951-1.912.512-2.143-7.998 2-.535 1.35 5.042 2.04-5.951 1.913-.512zm13.805-1.65l-3.477.932-.513-1.912 5.999-1.608.442 1.652-2.29 5.366 3.652-.979.512 1.913-6.172 1.654-.442-1.652 2.289-5.365zm6.471.503c.177.661.51 1.137.998 1.428.488.292 1.016.362 1.584.209.568-.152.99-.476 1.267-.973.277-.496.327-1.075.15-1.736-.177-.66-.51-1.136-.998-1.428-.488-.292-1.016-.361-1.584-.21-.568.153-.99.477-1.267.974-.277.497-.327 1.075-.15 1.736zm5.999-1.607c.152.567.184 1.13.098 1.688a4.2 4.2 0 01-.525 1.519c-.26.467-.604.876-1.031 1.227-.42.336-.902.577-1.447.723a4.025 4.025 0 01-1.631.102 4.55 4.55 0 01-1.507-.547 4.669 4.669 0 01-1.214-1.054 4.237 4.237 0 01-.741-1.515 4.116 4.116 0 01-.111-1.666 4.56 4.56 0 01.52-1.537c.271-.47.617-.874 1.036-1.21.428-.35.914-.599 1.459-.745a3.719 3.719 0 011.618-.08 4.01 4.01 0 011.503.53c.47.271.876.628 1.218 1.07.351.429.602.927.755 1.495zm3.208-.86c.177.66.51 1.137.998 1.428.488.292 1.016.362 1.584.21.568-.153.99-.477 1.267-.974.277-.496.327-1.075.15-1.736-.177-.66-.51-1.136-.998-1.428-.488-.292-1.016-.361-1.584-.21-.568.153-.99.477-1.267.974-.277.496-.327 1.075-.15 1.736zm5.998-1.607a4.05 4.05 0 01.099 1.688 4.22 4.22 0 01-.525 1.52c-.26.466-.604.875-1.032 1.226a3.892 3.892 0 01-1.446.723 4.026 4.026 0 01-1.631.102 4.543 4.543 0 01-1.507-.547 4.66 4.66 0 01-1.214-1.054 4.263 4.263 0 01-.742-1.515 4.12 4.12 0 01-.111-1.666c.087-.558.26-1.07.52-1.537.272-.47.617-.874 1.037-1.21.428-.35.914-.599 1.459-.745a3.718 3.718 0 011.618-.08 3.998 3.998 0 011.502.53c.471.271.877.628 1.219 1.07.351.429.602.927.754 1.495zm4.287-5.528c.406-.109.769-.144 1.09-.106.318.027.586.079.806.157.249.095.464.223.644.386.133-.246.301-.478.504-.694.174-.183.392-.366.654-.548.259-.193.562-.337.91-.43.869-.233 1.639-.14 2.31.276.67.416 1.152 1.17 1.444 2.259l1.281 4.781-2 .536-1.234-4.608c-.131-.486-.366-.833-.708-1.04-.329-.21-.668-.268-1.016-.175-.347.093-.617.315-.809.664-.181.347-.206.764-.075 1.25l1.234 4.608-1.999.536-1.235-4.608c-.13-.487-.366-.834-.707-1.04-.33-.21-.668-.269-1.016-.175-.348.093-.618.314-.81.664-.18.346-.205.763-.075 1.25l1.235 4.607-2 .536-2.143-7.998 1.478-.396.558.69c.118-.206.259-.4.422-.58a3.67 3.67 0 01.512-.454c.207-.154.455-.27.745-.348z" fill="#FF7851"/><defs><filter id="filter0_d" x=".789" y=".79" width="196.421" height="196.421" filterUnits="userSpaceOnUse" color-interpolation-filters="sRGB"><feFlood flood-opacity="0" result="BackgroundImageFix"/><feColorMatrix in="SourceAlpha" values="0 0 0 0 0 0 0 0 0 0 0 0 0 0 0 0 0 0 127 0"/><feOffset dy="8"/><feGaussianBlur stdDeviation="12"/><feColorMatrix values="0 0 0 0 0 0 0 0 0 0 0 0 0 0 0 0 0 0 0.16 0"/><feBlend in2="BackgroundImageFix" result="effect1_dropShadow"/><feBlend in="SourceGraphic" in2="effect1_dropShadow" result="shape"/></filter></defs></svg>