<svg width="248" height="50" fill="none" xmlns="http://www.w3.org/2000/svg"><path d="M23.4 18.9c1.12.52 2.12 1.2 3 2.04.76.72 1.44 1.68 2.04 2.88.64 1.2.96 2.66.96 4.38 0 1.44-.3 2.82-.9 4.14-.6 1.28-1.46 2.42-2.58 3.42-1.08.96-2.38 1.74-3.9 2.34-1.48.6-3.12.9-4.92.9H.9V1.2h15.6c1.64 0 3.16.28 4.56.84 1.4.56 2.6 1.32 3.6 2.28 1.04.96 1.84 2.08 2.4 3.36.56 1.24.84 2.58.84 4.02 0 1.28-.24 2.38-.72 3.3-.48.92-1 1.66-1.56 2.22-.68.68-1.42 1.24-2.22 1.68zM8.1 16.5h7.8c1.36 0 2.5-.44 3.42-1.32.92-.92 1.38-1.98 1.38-3.18 0-1.2-.46-2.24-1.38-3.12-.92-.92-2.06-1.38-3.42-1.38H8.1v9zm8.4 16.2c1.68 0 3.04-.52 4.08-1.56 1.08-1.04 1.62-2.32 1.62-3.84s-.54-2.8-1.62-3.84c-1.04-1.04-2.4-1.56-4.08-1.56H8.1v10.8h8.4zm29.119 6.6c-1.64 0-3.14-.26-4.5-.78-1.36-.56-2.54-1.34-3.54-2.34-.96-1.04-1.72-2.28-2.28-3.72-.52-1.44-.78-3.06-.78-4.86V11.4h6.9v15.3c0 1.8.52 3.26 1.56 4.38 1.08 1.08 2.46 1.62 4.14 1.62 1.68 0 3.04-.54 4.08-1.62 1.08-1.12 1.62-2.58 1.62-4.38V11.4h6.9V39h-5.1l-1.2-2.7c-.68.56-1.42 1.06-2.22 1.5-.68.4-1.5.76-2.46 1.08-.96.28-2 .42-3.12.42zm31.816-28.2c1.2 0 2.28.16 3.24.48.96.32 1.78.66 2.46 1.02.76.44 1.46.94 2.1 1.5l1.2-2.7h5.1v25.8c0 3.6-1.16 6.5-3.48 8.7-2.28 2.2-5.52 3.3-9.72 3.3-2.56 0-4.64-.46-6.24-1.38-1.56-.92-2.8-1.96-3.72-3.12a13.783 13.783 0 01-2.34-4.5h6.9c.28.52.66.98 1.14 1.38.44.32 1 .62 1.68.9.68.28 1.54.42 2.58.42 1.96 0 3.5-.54 4.62-1.62 1.12-1.04 1.68-2.4 1.68-4.08v-2.1c-.56.56-1.2 1.06-1.92 1.5-.64.4-1.4.76-2.28 1.08-.88.28-1.88.42-3 .42-1.72 0-3.36-.34-4.92-1.02-1.52-.68-2.86-1.62-4.02-2.82-1.12-1.2-2.02-2.62-2.7-4.26-.64-1.64-.96-3.44-.96-5.4 0-1.96.32-3.76.96-5.4.68-1.64 1.58-3.06 2.7-4.26 1.16-1.2 2.5-2.14 4.02-2.82 1.56-.68 3.2-1.02 4.92-1.02zm-5.7 13.5c0 .96.16 1.86.48 2.7.36.84.84 1.58 1.44 2.22.6.6 1.3 1.08 2.1 1.44.8.36 1.66.54 2.58.54.88 0 1.72-.18 2.52-.54.8-.36 1.5-.84 2.1-1.44.6-.64 1.08-1.38 1.44-2.22.36-.84.54-1.74.54-2.7 0-.96-.18-1.86-.54-2.7a6.81 6.81 0 00-1.44-2.16c-.6-.64-1.3-1.14-2.1-1.5-.8-.36-1.64-.54-2.52-.54-.92 0-1.78.18-2.58.54-.8.36-1.5.86-2.1 1.5-.6.6-1.08 1.32-1.44 2.16a7.52 7.52 0 00-.48 2.7zM105.052 39h-6.9V11.4h6.9V39zm-3.3-31.2c-1.04 0-1.96-.38-2.76-1.14-.76-.8-1.14-1.72-1.14-2.76 0-1.04.38-1.94 1.14-2.7.8-.8 1.72-1.2 2.76-1.2 1.04 0 1.94.4 2.7 1.2.8.76 1.2 1.66 1.2 2.7 0 1.04-.4 1.96-1.2 2.76-.76.76-1.66 1.14-2.7 1.14zm23.976 3.3c1.64 0 3.14.28 4.5.84 1.36.52 2.52 1.3 3.48 2.34 1 1 1.76 2.22 2.28 3.66.56 1.44.84 3.06.84 4.86V39h-6.9V23.7c0-1.8-.54-3.24-1.62-4.32-1.04-1.12-2.4-1.68-4.08-1.68-1.68 0-3.06.56-4.14 1.68-1.04 1.08-1.56 2.52-1.56 4.32V39h-6.9V11.4h5.1l1.2 2.7c.68-.56 1.42-1.06 2.22-1.5.68-.36 1.48-.7 2.4-1.02.96-.32 2.02-.48 3.18-.48z" fill="#0B0C0D"/><path d="M141.952 35.4c0-1.04.38-1.94 1.14-2.7.8-.8 1.72-1.2 2.76-1.2 1.04 0 1.94.4 2.7 1.2.8.76 1.2 1.66 1.2 2.7 0 1.04-.4 1.96-1.2 2.76-.76.76-1.66 1.14-2.7 1.14-1.04 0-1.96-.38-2.76-1.14-.76-.8-1.14-1.72-1.14-2.76z" fill="#2559DA"/><path d="M154.263 11.76c0-1.44.3-2.82.9-4.14.64-1.32 1.52-2.46 2.64-3.42 1.16-1 2.54-1.8 4.14-2.4 1.64-.6 3.48-.9 5.52-.9 1.88 0 3.58.3 5.1.9 1.56.6 2.9 1.44 4.02 2.52 1.12 1.08 1.98 2.36 2.58 3.84.6 1.44.9 3.02.9 4.74h-6.9c0-1.68-.5-3-1.5-3.96s-2.4-1.44-4.2-1.44c-1.8 0-3.2.44-4.2 1.32-1 .88-1.5 1.84-1.5 2.88 0 1.12.48 1.98 1.44 2.58.96.6 2.16 1.14 3.6 1.62 1.44.48 3 .98 4.68 1.5 1.72.52 3.3 1.22 4.74 2.1 1.44.88 2.64 2.04 3.6 3.48.96 1.4 1.44 3.24 1.44 5.52 0 1.36-.34 2.68-1.02 3.96-.64 1.28-1.56 2.44-2.76 3.48-1.2 1-2.66 1.82-4.38 2.46-1.68.6-3.56.9-5.64.9-2.12 0-4.02-.3-5.7-.9-1.64-.6-3.04-1.44-4.2-2.52a11.977 11.977 0 01-2.7-3.9c-.6-1.52-.9-3.18-.9-4.98h7.2c0 1.68.56 3.06 1.68 4.14 1.12 1.04 2.66 1.56 4.62 1.56 2.12 0 3.7-.44 4.74-1.32 1.04-.92 1.56-1.98 1.56-3.18 0-1.16-.48-2.06-1.44-2.7-.96-.64-2.16-1.2-3.6-1.68a67.12 67.12 0 00-4.74-1.5c-1.68-.48-3.24-1.14-4.68-1.98-1.44-.84-2.64-1.92-3.6-3.24-.96-1.36-1.44-3.14-1.44-5.34zm37.472 13.44c0 2.28.66 4.1 1.98 5.46 1.32 1.36 2.96 2.04 4.92 2.04s3.6-.68 4.92-2.04c1.32-1.36 1.98-3.18 1.98-5.46s-.66-4.1-1.98-5.46c-1.32-1.36-2.96-2.04-4.92-2.04s-3.6.68-4.92 2.04c-1.32 1.36-1.98 3.18-1.98 5.46zm20.7 0c0 1.96-.38 3.8-1.14 5.52-.72 1.68-1.72 3.16-3 4.44-1.24 1.28-2.7 2.3-4.38 3.06-1.64.72-3.4 1.08-5.28 1.08-1.88 0-3.66-.36-5.34-1.08-1.64-.76-3.1-1.78-4.38-3.06a15.511 15.511 0 01-3-4.44c-.72-1.72-1.08-3.56-1.08-5.52 0-1.96.36-3.78 1.08-5.46.76-1.72 1.76-3.22 3-4.5 1.28-1.28 2.74-2.28 4.38-3 1.68-.76 3.46-1.14 5.34-1.14s3.64.38 5.28 1.14c1.68.72 3.14 1.72 4.38 3 1.28 1.28 2.28 2.78 3 4.5.76 1.68 1.14 3.5 1.14 5.46zm23.072-20.1h6v6.3h6v6.9h-6v11.1c0 1.2.34 2.16 1.02 2.88.72.68 1.68 1.02 2.88 1.02h.78c.2-.04.38-.08.54-.12.16-.04.32-.1.48-.18v6c-.28.12-.6.22-.96.3-.68.2-1.46.3-2.34.3-1.36 0-2.62-.22-3.78-.66a8.834 8.834 0 01-2.94-2.04c-.8-.88-1.44-1.92-1.92-3.12-.44-1.2-.66-2.56-.66-4.08V18.3h-9V39h-6.9V18.3h-3.3V12h3.3v-1.2c0-1.48.22-2.82.66-4.02.48-1.24 1.12-2.3 1.92-3.18a8.13 8.13 0 012.94-1.98c1.16-.48 2.42-.72 3.78-.72.44 0 .86.04 1.26.12.4.04.76.1 1.08.18.36.12.68.22.96.3v6l-.48-.12c-.16-.04-.34-.08-.54-.12-.2-.04-.46-.06-.78-.06-1.2 0-2.16.36-2.88 1.08-.68.68-1.02 1.62-1.02 2.82v.9h6.6c2.2 0 3.3-1.1 3.3-3.3V5.1z" fill="#8E8E8E"/></svg>