<svg width="40" height="40" fill="none" xmlns="http://www.w3.org/2000/svg"><g clip-path="url(#clip0)"><path d="M37.586 31.023H2.414A2.414 2.414 0 010 28.609V5.879a2.414 2.414 0 012.414-2.415h35.172A2.414 2.414 0 0140 5.88v22.73a2.414 2.414 0 01-2.414 2.414z" fill="#506D90"/><path d="M37.585 3.464h-2.414a2.414 2.414 0 012.414 2.415v22.73a2.414 2.414 0 01-2.414 2.414h2.414A2.414 2.414 0 0040 28.609V5.879a2.414 2.414 0 00-2.415-2.415z" fill="#455F7E"/><path d="M2.414 27.08V6.2c0-.177.144-.321.322-.321h34.527c.178 0 .322.144.322.322V27.08a.322.322 0 01-.322.321H2.736a.322.322 0 01-.322-.322z" fill="#ECF5FF"/><path d="M37.264 5.879H34.85c.177 0 .322.144.322.322V27.08a.322.322 0 01-.322.321h2.414a.322.322 0 00.322-.322V6.201a.322.322 0 00-.322-.322z" fill="#DBEAFD"/><path d="M23.987 40h-7.974l1.207-8.977h5.56L23.987 40z" fill="#455F7E"/><path d="M22.78 31.023h-2.415L21.573 40h2.414l-1.207-8.977z" fill="#405972"/><path d="M25.223 36.119l.85 3.065a.644.644 0 01-.62.816H14.548a.644.644 0 01-.62-.816l.85-3.065a.644.644 0 01.62-.472h9.205c.289 0 .543.193.62.472z" fill="#506D90"/><path d="M26.073 39.184l-.85-3.065a.644.644 0 00-.62-.472h-2.415c.29 0 .544.193.62.472l.851 3.065a.644.644 0 01-.62.816h2.414a.644.644 0 00.62-.816z" fill="#455F7E"/><path d="M7.204 4.83h25.592V27.4H7.204V4.83z" fill="#fff"/><path d="M31.83 0h-2.414c.533 0 .966.432.966.966V27.4h2.414V.966A.966.966 0 0031.831 0z" fill="#EFEAF4"/><path d="M31.83 0H8.17a.966.966 0 00-.966.966v3.863h25.592V.966A.966.966 0 0031.83 0z" fill="#455F7E"/><path d="M31.83 0h-2.414c.533 0 .966.432.966.966v3.863h2.414V.966A.966.966 0 0031.831 0z" fill="#405972"/><path d="M9.618 3.018a.604.604 0 100-1.207.604.604 0 000 1.207z" fill="#D5707E"/><path d="M12.032 3.018a.604.604 0 100-1.207.604.604 0 000 1.207z" fill="#F0D16F"/><path d="M14.447 3.018a.604.604 0 100-1.207.604.604 0 000 1.207z" fill="#A4D9A6"/><path d="M26.849 27.401v-4.174c0-1.375-.842-2.61-2.122-3.114l-1.63-.641a1.686 1.686 0 01-1.07-1.569V16.57h-4.056v1.333c0 .693-.424 1.315-1.068 1.569l-1.631.641a3.346 3.346 0 00-2.122 3.114v4.174" fill="#DD8793"/><path d="M24.727 20.113l-1.63-.641a1.686 1.686 0 01-1.07-1.569V16.57h-2.414v2.54c0 .693.424 1.316 1.069 1.57l1.63.64a3.346 3.346 0 012.122 3.114v2.967h2.415v-4.174c0-1.375-.842-2.61-2.122-3.114z" fill="#D5707E"/><path d="M22.623 27.401v-2.273a.604.604 0 011.207 0v2.273h-1.207zm-6.454 0v-2.273a.604.604 0 011.207 0v2.273H16.17z" fill="#D5707E"/><path d="M20 20.72c1.156 0 2.19-.528 2.871-1.357-.516-.298-2.05-.851-2.05-1.46V16.57h-2.85v1.333c0 .609-.327 1.162-.843 1.46A3.708 3.708 0 0020 20.721z" fill="#F2CCBC"/><path d="M20.648 20.664a3.713 3.713 0 002.223-1.301 1.685 1.685 0 01-.843-1.46V16.57h-2.415v2.54c0 .68.41 1.292 1.035 1.554z" fill="#ECAD9A"/><path d="M20.09 17.105c-.128 0-.344.41-.469.396a3.696 3.696 0 01-3.317-3.676v-1.603l1.207-2.904c0-1.068.866-.726 1.934-.726h2.317c1.067 0 .726-.342.726.726l1.207 2.904v1.603c0 1.292-.663 2.43-1.667 3.09-.583.383-1.939.19-1.939.19z" fill="#F2CCBC"/><path d="M22.488 9.318c0-1.068.342-.726-.726-.726l-.481 2.422v2.811c.017.195.09 1.274-.701 2.166-1.004 1.131-2.492.94-2.608.924a3.76 3.76 0 001.46.562s.29.043.568.043a3.696 3.696 0 003.695-3.695v-1.603l-1.207-2.904z" fill="#ECAD9A"/><path d="M23.695 9.318a1.934 1.934 0 00-1.933-1.934h-3.525a1.934 1.934 0 00-1.933 1.934v2.904a6.841 6.841 0 003.325-.308 6.665 6.665 0 001.524-.78.16.16 0 01.225.043c.148.229.444.594.948.838a2.364 2.364 0 001.369.207V9.318z" fill="#CF9772"/><path d="M21.762 7.384h-2.414c1.068 0 1.933.866 1.933 1.934v1.792a.157.157 0 01.098.067c.148.229.444.594.948.838a2.364 2.364 0 001.369.207V9.318a1.933 1.933 0 00-1.934-1.934z" fill="#C88556"/><path d="M28.214 2.415h9.91c1.036 0 1.876.84 1.876 1.875v4.276c0 1.036-.84 1.876-1.876 1.876H32.56a.438.438 0 00-.31.128l-1.81 1.811a.25.25 0 01-.427-.177V10.88a.438.438 0 00-.437-.438h-1.362a1.876 1.876 0 01-1.876-1.876V4.29c0-1.036.84-1.875 1.876-1.875z" fill="#F7E07F"/><path d="M38.124 2.415H35.71c1.036 0 1.876.84 1.876 1.875v4.276c0 1.036-.84 1.876-1.876 1.876h2.414c1.036 0 1.876-.84 1.876-1.876V4.29c0-1.036-.84-1.875-1.876-1.875z" fill="#F0D16F"/><path d="M37.269 5.825h-8.2a.604.604 0 110-1.207h8.2a.603.603 0 110 1.207zm0 2.415h-8.2a.604.604 0 110-1.208h8.2a.603.603 0 110 1.207z" fill="#F9F6F6"/></g><defs><clipPath id="clip0"><path fill="#fff" d="M0 0h40v40H0z"/></clipPath></defs></svg>