<svg width="40" height="40" fill="none" xmlns="http://www.w3.org/2000/svg"><g clip-path="url(#clip0)"><path d="M31.11 5.048l-14.166-5a.833.833 0 00-.555 0l-14.166 5a.835.835 0 00-.556.786v10c0 12.94 1.919 17.67 14.625 24.076a.835.835 0 00.75 0c12.706-6.406 14.625-11.135 14.625-24.076v-10a.835.835 0 00-.556-.786z" fill="#fff"/><path d="M16.667 1.718L3.334 6.424v9.41c0 1.508.025 2.887.087 4.166h13.246V1.718z" fill="#2559DA"/><path d="M29.913 20c.062-1.279.087-2.658.087-4.166v-9.41L16.667 1.718V20h13.246z" fill="#FACC56"/><path d="M16.667 20v18.233C26.99 32.97 29.464 29.23 29.913 20H16.667z" fill="#2559DA"/><path d="M3.42 20c.45 9.23 2.924 12.97 13.247 18.233V20H3.421z" fill="#FACC56"/><path opacity=".1" d="M16.667 35C4.914 29.008 3.334 26.663 3.334 14.268v1.566c0 12.395 1.58 16.407 13.333 22.399C28.42 32.24 30 28.229 30 15.833v-1.565C30 26.663 28.42 29.008 16.667 35z" fill="#1B1D1A"/><path d="M29.167 40a9.167 9.167 0 100-18.333 9.167 9.167 0 000 18.333z" fill="#fff"/><path d="M29.167 38.333a7.5 7.5 0 100-15 7.5 7.5 0 000 15z" fill="#2559DA"/><path d="M31.91 31.91L30 33.821v-7.988a.833.833 0 10-1.667 0v7.988l-1.91-1.91a.833.833 0 10-1.179 1.178l3.334 3.333a.83.83 0 001.178 0l3.333-3.333a.833.833 0 10-1.178-1.179z" fill="#fff"/><path d="M31.433 21.962c.168-1.827.234-3.844.234-6.128v-10a.835.835 0 00-.556-.786l-14.167-5a.833.833 0 00-.555 0l-14.166 5a.835.835 0 00-.556.786v10c0 12.94 1.919 17.67 14.625 24.076a.835.835 0 00.75 0c2.037-1.026 3.77-2.01 5.288-2.991a9.138 9.138 0 006.837 3.08c5.054 0 9.166-4.111 9.166-9.166 0-4.271-2.94-7.859-6.9-8.871z" fill="url(#paint0_linear)"/></g><defs><linearGradient id="paint0_linear" x1="-.843" y1="11.034" x2="39.698" y2="29.938" gradientUnits="userSpaceOnUse"><stop stop-color="#fff" stop-opacity=".2"/><stop offset="1" stop-color="#fff" stop-opacity="0"/></linearGradient><clipPath id="clip0"><path fill="#fff" d="M0 0h40v40H0z"/></clipPath></defs></svg>