<svg width="40" height="40" fill="none" xmlns="http://www.w3.org/2000/svg"><g clip-path="url(#clip0)"><path d="M30.414 10.414l-.395.008a9.528 9.528 0 00-3.268.716s-2.34.367-6.405 5.463l-.274.329c-3.293-4.343-6.282-5.59-6.757-5.768l-.18-.07a9.547 9.547 0 00-3.451-.678C4.4 10.362.039 14.646 0 19.929c-.038 5.327 4.268 9.658 9.587 9.658l.394-.009a9.528 9.528 0 003.268-.716s2.386-.374 6.522-5.61l-.017.023.094.115c3.85 4.572 6.903 5.472 6.903 5.472a9.551 9.551 0 003.663.725A9.586 9.586 0 0040 20a9.586 9.586 0 00-9.586-9.586zM14.442 23.389c-1.34 1.405-2.865 2.49-4.896 2.49a5.878 5.878 0 01-.002-11.757c1.814-.001 3.254.975 4.576 2.154a44.174 44.174 0 013.545 3.559s-2.114 2.39-3.223 3.554zm16.014 2.49c-1.814 0-3.254-.975-4.576-2.154-2.014-1.796-3.545-3.56-3.545-3.56s2.114-2.389 3.223-3.553c1.34-1.406 2.866-2.49 4.896-2.49a5.878 5.878 0 01.002 11.757z" fill="#FB2B3A"/><path d="M22.336 20.166s.444.51 1.17 1.264l-2.567 3.183a28.096 28.096 0 01-1.09-1.223l-.094-.115.017-.023 2.564-3.086zm-4.67-.332s-.43-.493-1.132-1.225l2.487-2.98c.345.4.697.832 1.052 1.3l-2.407 2.905zm15.837-8.912a9.583 9.583 0 015.047 8.445 9.586 9.586 0 01-12.945 8.98c.726.39 1.147.515 1.147.515a9.552 9.552 0 003.663.724A9.586 9.586 0 0040 20a9.591 9.591 0 00-6.498-9.078z" fill="#D6132B"/></g><defs><clipPath id="clip0"><path fill="#fff" d="M0 0h40v40H0z"/></clipPath></defs></svg>