<svg width="40" height="40" fill="none" xmlns="http://www.w3.org/2000/svg"><g clip-path="url(#clip0)"><path d="M32.35 35.97H12.137a2.095 2.095 0 01-2.095-2.095V2.095C10.042.938 10.98 0 12.137 0H32.35c1.157 0 2.095.938 2.095 2.095v31.78a2.095 2.095 0 01-2.095 2.094z" fill="#BED9FD"/><path d="M32.35 0h-2.426c1.157 0 2.094.938 2.094 2.095v31.78a2.095 2.095 0 01-2.094 2.094h2.426a2.095 2.095 0 002.094-2.095V2.094A2.094 2.094 0 0032.35 0z" fill="#9EC8FC"/><path d="M27.864 40H7.65a2.095 2.095 0 01-2.094-2.095V6.125c0-1.156.937-2.094 2.094-2.094h20.214c1.156 0 2.094.938 2.094 2.094v31.78A2.095 2.095 0 0127.864 40z" fill="#F7F7F7"/><path d="M27.863 4.031h-2.425c1.156 0 2.094.938 2.094 2.095v31.78A2.095 2.095 0 0125.437 40h2.426a2.095 2.095 0 002.095-2.094V6.126a2.095 2.095 0 00-2.095-2.095z" fill="#E8E8E8"/><path d="M10.682 12.447h-.009a.607.607 0 01-.457-.218l-.961-1.153a.606.606 0 11.931-.776l.509.61 1.494-1.694a.606.606 0 11.909.803l-1.961 2.223a.606.606 0 01-.455.205zm0 5.749h-.009a.607.607 0 01-.457-.218l-.961-1.153a.606.606 0 11.931-.776l.509.61 1.494-1.693a.606.606 0 11.909.802l-1.961 2.223a.606.606 0 01-.455.205z" fill="#67B59F"/><path d="M11.733 22.238l.637-.721a.606.606 0 10-.91-.803l-.536.608-.537-.608a.607.607 0 00-.91.803l.638.721-.616.699a.606.606 0 10.91.802l.515-.584.515.584a.605.605 0 10.91-.802l-.616-.699z" fill="#DF6937"/><path d="M10.682 29.693h-.009a.607.607 0 01-.457-.218l-.961-1.153a.606.606 0 11.931-.776l.509.61 1.494-1.694a.606.606 0 11.909.803l-1.961 2.223a.606.606 0 01-.455.205z" fill="#67B59F"/><path d="M25.929 10.592H15.584a.607.607 0 010-1.213h10.345a.606.606 0 110 1.213zM16.96 12.83h-1.376a.607.607 0 010-1.212h1.377a.606.606 0 010 1.213zm4.485 0h-1.377a.607.607 0 010-1.212h1.377a.606.606 0 110 1.213zm4.483 0h-1.376a.607.607 0 010-1.212h1.376a.606.606 0 110 1.213zm.001 3.51H15.584a.606.606 0 110-1.212h10.345a.606.606 0 010 1.213zm-8.969 2.24h-1.376a.606.606 0 110-1.214h1.377a.606.606 0 010 1.213zm4.485 0h-1.377a.606.606 0 110-1.214h1.377a.606.606 0 110 1.213zm4.483 0h-1.376a.606.606 0 110-1.214h1.376a.606.606 0 110 1.213zm.001 3.51H15.584a.607.607 0 010-1.213h10.345a.606.606 0 110 1.212zm-8.969 2.238h-1.376a.606.606 0 110-1.213h1.377a.606.606 0 010 1.213zm4.485 0h-1.377a.606.606 0 110-1.213h1.377a.607.607 0 010 1.213zm4.483 0h-1.376a.606.606 0 110-1.213h1.376a.607.607 0 010 1.213zm.001 3.51H15.584a.606.606 0 110-1.213h10.345a.606.606 0 110 1.213zm-8.969 2.239h-1.376a.607.607 0 010-1.213h1.377a.606.606 0 010 1.213zm4.485 0h-1.377a.607.607 0 010-1.213h1.377a.606.606 0 110 1.213zm4.483 0h-1.376a.607.607 0 010-1.213h1.376a.606.606 0 110 1.213zm.001 3.51H15.584a.606.606 0 110-1.213h10.345a.606.606 0 010 1.213zm-8.969 2.238h-1.376a.606.606 0 110-1.213h1.377a.606.606 0 010 1.213zm4.485 0h-1.377a.606.606 0 110-1.213h1.377a.606.606 0 110 1.213zm4.483 0h-1.376a.606.606 0 110-1.213h1.376a.606.606 0 110 1.213z" fill="#C8C3CA"/><path d="M10.682 35.442h-.009a.606.606 0 01-.457-.218l-.961-1.153a.606.606 0 11.931-.776l.509.61 1.494-1.693a.606.606 0 11.909.802l-1.961 2.223a.606.606 0 01-.455.205z" fill="#67B59F"/></g><defs><clipPath id="clip0"><path fill="#fff" d="M0 0h40v40H0z"/></clipPath></defs></svg>