<svg width="40" height="40" fill="none" xmlns="http://www.w3.org/2000/svg"><path d="M31.23 24.918c.153-1.848-.129-3.699-.947-5.362-2.112-4.298-1.628-4.61-1.693-8.875a1.578 1.578 0 10-3.156 0v15.864a3.5 3.5 0 01-.075.718v2.27a3.475 3.475 0 01-3.47 3.472h-8.637A12.254 12.254 0 0018.5 37.17l.04.016a5.146 5.146 0 012.745 2.77 19.05 19.05 0 0010.847-4.292l-1.176-4.32a5.515 5.515 0 01-.174-1.896l.448-4.53zM7.392 9.159l-.481-.446a1.841 1.841 0 00-2.595.1 1.842 1.842 0 00.099 2.594l2.977 2.758V9.16z" fill="#F9CFA9"/><path d="M23.173 0H9.68a2.377 2.377 0 00-2.374 2.375V30.81a2.377 2.377 0 002.374 2.374h13.493a2.377 2.377 0 002.375-2.375V2.376A2.377 2.377 0 0023.173 0z" fill="#3D4EC6"/><path d="M11.878 1.76a1.2 1.2 0 01.5-1.76H9.68a2.375 2.375 0 00-2.374 2.375V30.81a2.374 2.374 0 002.374 2.374h2.869V3.842c0-.747-.254-1.461-.671-2.081z" fill="#2B3894"/><path d="M8.68 14.998V30.81a1 1 0 001 1h13.494a1 1 0 001-1V14.998H8.68z" fill="#E6F7FE"/><path d="M8.68 14.998V30.81a1 1 0 001 1h2.366V14.998H8.68z" fill="#D5F1FE"/><path d="M14.115 19.768a1.566 1.566 0 11-3.132 0 1.566 1.566 0 013.132 0zm0 5.809a1.567 1.567 0 11-3.133 0 1.567 1.567 0 013.133 0z" fill="#3D4EC6"/><path d="M12.372 18.212a1.566 1.566 0 101.474 2.435c-1.351.152-2.211-1.35-1.474-2.435zm0 5.809a1.566 1.566 0 101.474 2.435c-1.343.15-2.216-1.343-1.474-2.435z" fill="#2B3894"/><path d="M18.95 19.117h-2.223a.586.586 0 010-1.172h2.224a.586.586 0 010 1.172zm2.225 2.474h-4.448a.586.586 0 110-1.172h4.448a.586.586 0 010 1.172zm-2.225 3.334h-2.223a.586.586 0 110-1.172h2.224a.586.586 0 010 1.172zm2.225 2.475h-4.448a.586.586 0 110-1.172h4.448a.586.586 0 010 1.172z" fill="#11DFEF"/><path d="M23.165 1.375H21.16a.342.342 0 00-.343.342.827.827 0 01-.824.825h-7.148a.827.827 0 01-.825-.825.342.342 0 00-.343-.342H9.672a1 1 0 00-1 1v12.78h15.493V2.375a1 1 0 00-1-1z" fill="#F948B4"/><path d="M12.045 1.915a.81.81 0 01-.025-.198.342.342 0 00-.343-.342H9.672a1 1 0 00-1 1v12.78h3.373V1.915z" fill="#E00E8B"/><path d="M23.166 1.375H21.16a.342.342 0 00-.342.342.827.827 0 01-.825.825h-3.942l8.115 10.172V2.374a1 1 0 00-1-.999zM13.9 6.032h-2.702a.586.586 0 010-1.172H13.9a.586.586 0 110 1.172z" fill="#FC7ACD"/><path d="M10.063 18.843a1.61 1.61 0 01-2.273.087l-2.695-2.498a1.61 1.61 0 012.187-2.36l2.695 2.497a1.61 1.61 0 01.086 2.274z" fill="#F9CFA9"/><path d="M9.977 16.57l-1.282-1.19a1.89 1.89 0 01-2.187 2.36l1.282 1.19a1.61 1.61 0 002.187-2.36z" fill="#FBBC8D"/><path d="M10.063 23.232a1.609 1.609 0 01-2.273.087L5.095 20.82a1.609 1.609 0 112.187-2.36l2.695 2.497a1.61 1.61 0 01.086 2.274z" fill="#F9CFA9"/><path d="M10.063 27.62a1.61 1.61 0 01-2.273.087L5.095 25.21a1.61 1.61 0 012.187-2.36l2.695 2.496a1.61 1.61 0 01.086 2.274z" fill="#F9CFA9"/><path d="M30.956 31.345a5.55 5.55 0 01-.17-.936 12.84 12.84 0 01-14.207 5.755 12.239 12.239 0 001.96 1.023 5.144 5.144 0 012.745 2.77 19.05 19.05 0 0010.848-4.293l-1.176-4.32zM9.977 20.958L8.695 19.77a1.89 1.89 0 01-2.187 2.36l1.282 1.188a1.609 1.609 0 002.187-2.36zm0 4.388L8.695 24.16a1.89 1.89 0 01-2.187 2.36l1.282 1.188a1.609 1.609 0 002.187-2.36z" fill="#FBBC8D"/></svg>