<svg width="40" height="40" fill="none" xmlns="http://www.w3.org/2000/svg"><g clip-path="url(#clip0)"><path d="M13.469 29.225H24.92v9.758l-1.784 1.012h-7.884l-1.784-.8v-9.97z" fill="#FFD064"/><path d="M26.356 29.225h-3.219c-1.22 1.677-1.244 3.675 0 5.385 1.245 1.71 1.22 3.708 0 5.385h1.61l1.61-.805v-9.965z" fill="#EBB044"/><path d="M22.332 30.928l-8.863-.647v2.862h8.928l-.065-2.215z" fill="#FFCDBE"/><path d="M26.53 25.9H13.47v4.38c1.698 1.086 3.501 1.655 4.921 1.655 1.104 0 2.508-.344 3.942-1.007a4.187 4.187 0 00.065 2.214h4.134V25.9z" fill="#EBAE9D"/><path d="M37.335 34.713c-1.554-1.434-1.921-3.398-1.052-5.28.87-1.884.502-3.848-1.052-5.282-1.555-1.434-1.736-2.61-1.736-4.14V15.61h-5.456s-.805 5.543-.805 7.803c0 2.558-.462 4.135-1.683 5.812-1.22 1.677-1.244 3.675 0 5.385 1.245 1.71 2.026 3.708.805 5.385h10.422a2.068 2.068 0 002.069-2.125c-.034-1.16-.541-2.26-1.512-3.156z" fill="#544F56"/><path d="M26.356 34.61c-1.244-1.71-1.22-3.709 0-5.386s1.683-3.254 1.683-5.812V15.61h-1.61v7.803c0 2.558-.462 4.135-1.682 5.812-1.22 1.677-1.245 3.675 0 5.385 1.244 1.71 1.22 3.708 0 5.385h1.61c1.22-1.677 1.244-3.675 0-5.385z" fill="#444145"/><path d="M31.094 18.39V8.467l-10.91-5.708L9.71 8.485v9.906c0 7.086 7.658 11.13 10.29 11.13 3.786 0 11.094-4.044 11.094-11.13z" fill="#FFCDBE"/><path d="M10.515 18.39V8.486l9.668-5.727L8.905 8.485v9.906c0 7.086 7.309 11.13 11.095 11.13-2.632 0-9.485-4.044-9.485-11.13z" fill="#EBAE9D"/><path d="M20 20.011a1.5 1.5 0 00.814-.24c.496-.32.809-1.031.632-1.665l-.331-1.186c-.315-1.129-1.915-1.129-2.23 0l-.331 1.186c-.177.634.136 1.345.632 1.665.247.16.53.24.814.24z" fill="#EBAE9D"/><path d="M16.056 23.353c1.419 2.869 6.469 2.869 7.888 0a.67.67 0 00-.596-.97h-6.696a.67.67 0 00-.596.97z" fill="#fff"/><path d="M23.348 22.985H16.65a.604.604 0 010-1.207h6.697a.604.604 0 110 1.207z" fill="#EBAE9D"/><path d="M14.544 2.758h9.177v3.057h-9.177V2.758z" fill="#444145"/><path d="M25.301 2.855C23.967 1.163 22.056 0 19.516 0c-2.473 0-4.612.663-6.364 1.767-2.69 2.64-5.052 6.416-5.052 9.786 0 2.535-.79 6.548-.79 8.458 0 1.53-.182 2.706-1.737 4.14-1.554 1.434-1.921 3.398-1.052 5.281.87 1.883.502 3.847-1.052 5.281-1.555 1.434-1.117 3.398-.248 5.281L8.896 40l.526-.285.963.28h4.868c-1.22-1.678-1.245-3.676 0-5.386 1.244-1.71 1.22-3.708 0-5.385-1.22-1.677-1.683-3.254-1.683-5.812V11.825c0-5.018 2.453-8.737 6.537-8.737 1.973 0 3.614 1.507 3.614 2.728 1.038-.992 3.583-.62 5.109 2.963.821 1.929 1.41 4.347 2.773 6.501.315-.93.658-2.228.658-3.455 0-5.123-2.387-8.201-6.96-8.97z" fill="#544F56"/><path d="M23.72 5.816c5.286 0 3.366 7.349 7.374 10.774 0 0 .244-.525.509-1.31-1.364-2.154-1.952-5.377-2.773-7.306-1.526-3.583-4.071-3.15-5.11-2.158zM4.274 34.713c1.555-1.434 1.921-3.398 1.052-5.281-.87-1.883-.502-3.847 1.052-5.281 1.555-1.434 1.736-2.61 1.736-4.14 0-1.91.791-5.923.791-8.458 0-3.37 1.558-7.146 4.248-9.786-3.468 2.186-5.415 6.106-5.415 10.058 0 2.535-1.233 6.277-1.233 8.186 0 1.53-.181 2.706-1.736 4.14-1.555 1.434-1.922 3.398-1.052 5.281.87 1.883.502 3.847-1.053 5.281-.97.895-1.478 1.997-1.51 3.156a2.068 2.068 0 002.067 2.125c-.869-1.883-.502-3.847 1.053-5.28zm11.838-17.52a.604.604 0 01-.603-.603v-1.35a.604.604 0 011.207 0v1.349c0 .333-.27.603-.604.603zm5.632-3.361a.603.603 0 01-.352-1.094c.8-.573 1.931-.889 3.185-.889a5.43 5.43 0 012.832.806.604.604 0 01-.645 1.02c-.612-.388-1.43-.619-2.187-.619-1.004 0-1.885.236-2.482.663a.601.601 0 01-.351.113zm-3.488 0a.6.6 0 01-.351-.113c-.597-.427-1.479-.663-2.483-.663-.757 0-1.574.232-2.186.619a.604.604 0 01-.646-1.02 5.43 5.43 0 012.832-.806c1.254 0 2.386.316 3.186.889a.603.603 0 01-.352 1.094zm5.631 3.361a.604.604 0 01-.604-.603v-1.35a.604.604 0 011.207 0v1.349c0 .333-.27.603-.603.603z" fill="#444145"/><path d="M25.229 26.39a.604.604 0 010-1.208c5.782 0 7.156-1.838 7.669-5.23.05-.33 1.277-1.91 1.277-1.91s-.034 1.76-.083 2.09c-.346 2.286-1.082 3.743-2.389 4.727-1.386 1.044-3.444 1.53-6.474 1.53z" fill="#766D78"/><path d="M8.895 40c-1.147-1.833-1.069-3.953.237-5.746 1.08-1.485 1.08-3.19 0-4.675a.604.604 0 01.976-.71c1.388 1.908 1.388 4.187 0 6.095-1.082 1.486-1.082 3.19 0 4.675.196.27.277.355.277.355L8.895 40z" fill="#444145"/><path d="M7.296 11.854l-.805 6.217c0 .445 1.165 1.61 1.61 1.61.444 0 .804-1.165.804-1.61v-4.909c0-.874-.81-1.478-1.61-1.308z" fill="#A29AA5"/><path d="M8.1 18.876a.805.805 0 01-.804-.805v-6.217a1.354 1.354 0 00-.33.117c-.889.45-1.682 1.8-1.682 4.183 0 2.384.793 3.733 1.682 4.184.888.45 1.94-.196 1.94-1.192v-1.075c0 .444-.36.805-.805.805z" fill="#766D78"/><path d="M33.034 11.971a1.354 1.354 0 00-.33-.117l-.806 6.233c0 .435 1.158 1.592 1.592 1.592.252 0 .629-.957.902-1.194.201-.624.323-1.398.323-2.33 0-2.384-.793-3.734-1.681-4.184z" fill="#A29AA5"/><path d="M32.703 18.087v-6.233a1.338 1.338 0 00-1.61 1.309v5.983a1.336 1.336 0 001.94 1.192c.541-.274 1.046-.882 1.359-1.853-.273.237-.65.39-.902.39a.787.787 0 01-.787-.788z" fill="#766D78"/></g><defs><clipPath id="clip0"><path fill="#fff" d="M0 0h40v40H0z"/></clipPath></defs></svg>