<svg width="40" height="40" fill="none" xmlns="http://www.w3.org/2000/svg"><g clip-path="url(#clip0)"><path d="M23.42 35.666c0 .667-.54 1.207-1.207 1.207H1.207C.54 36.873 0 36.333 0 35.666V7.336l23.42-1.208v29.538z" fill="#EDEBED"/><path d="M25.594 7.336v28.33c0 .666-.541 1.207-1.208 1.207h-2.414c.666 0 1.207-.54 1.207-1.207v-1.61L16.7 23.473l6.48-16.137h2.414z" fill="#DBD9DC"/><path d="M23.42 7.336h-.24L12.313 9.198l-9.9-1.862H0v-3.22C0 3.45.54 2.91 1.207 2.91h21.006c.667 0 1.208.54 1.208 1.207v3.22z" fill="#C3AFF0"/><path d="M25.593 4.116v3.22H23.18v-3.22c0-.667-.54-1.207-1.207-1.207h2.414c.667 0 1.207.54 1.207 1.207z" fill="#A69DED"/><path d="M23.179 34.056c0 .222-.18.402-.403.402H2.816a.402.402 0 01-.402-.402V7.336H23.18v26.72z" fill="#fff"/><path d="M16.62 16.35H5.232a.402.402 0 01-.403-.402v-5.795c0-.222.18-.403.403-.403h15.13c.223 0 .403.18.403.403v2.817l-4.145 3.38z" fill="#BDE4FF"/><path d="M11.71 24.197H4.83a.604.604 0 110-1.207h6.88a.604.604 0 010 1.207zm0-2.415H4.83a.604.604 0 010-1.207h6.88a.604.604 0 110 1.207zm.805-2.414H4.83a.604.604 0 110-1.207h7.686a.604.604 0 010 1.207z" fill="#DBD9DC"/><path d="M4.83 32.648a.604.604 0 01-.604-.604v-1.207a.604.604 0 111.207 0v1.207c0 .334-.27.604-.604.604z" fill="#BDE4FF"/><path d="M7.243 32.648a.604.604 0 01-.603-.604v-2.817a.604.604 0 111.207 0v2.817c0 .333-.27.604-.604.604zm4.829 0a.604.604 0 01-.603-.604v-6.036a.604.604 0 111.207 0v6.036c0 .334-.27.604-.604.604z" fill="#FC8D94"/><path d="M14.486 32.648a.604.604 0 01-.603-.604v-2.817a.604.604 0 111.207 0v2.817c0 .333-.27.604-.604.604zm-4.828 0a.604.604 0 01-.603-.604v-4.426a.604.604 0 111.207 0v4.426c0 .334-.27.604-.604.604z" fill="#BDE4FF"/><path d="M31.325 26.712l4.157 4.157-1.707 1.707-4.157-4.157 1.707-1.707z" fill="#EDEBED"/><path d="M17.54 29.113c-3.992-3.992-3.992-10.464 0-14.455a10.177 10.177 0 016.02-2.923c2.818.032 6.021 1.589 8.325 3.892 0 0 4.668 6.258-.698 12.944 0 0-3.28 3.36-7.625 3.464a10.178 10.178 0 01-6.022-2.922z" fill="#FFE07D"/><path d="M34.988 21.884c0 2.616-.997 5.232-2.993 7.228a10.19 10.19 0 01-8.434 2.923 10.18 10.18 0 006.02-2.923 10.188 10.188 0 002.993-7.227c0-2.616-.997-5.232-2.993-7.228a10.176 10.176 0 00-6.02-2.922 10.19 10.19 0 018.435 2.922 10.188 10.188 0 012.992 7.227z" fill="#FFD064"/><path d="M19.247 27.405a7.807 7.807 0 1111.04-11.04 7.807 7.807 0 01-11.04 11.04z" fill="#fff"/><path d="M27.968 25.686h-1.61a.402.402 0 01-.402-.402v-6.841c0-.223.18-.403.402-.403h1.61c.222 0 .403.18.403.402v6.842c0 .222-.18.402-.403.402z" fill="#FC8D94"/><path d="M23.14 25.686h-1.61a.402.402 0 01-.403-.403v-3.621c0-.223.18-.403.402-.403h1.61c.222 0 .402.18.402.403v3.621c0 .223-.18.403-.402.403z" fill="#BDE4FF"/><path d="M35.888 36.385l-3.577-3.577a.401.401 0 010-.568l1.217-1.217.664-.426 4.35 2.833c.94.941 1.333 1.746.392 2.686 0 0-.295.463-.722.894a2.407 2.407 0 01-2.324-.625z" fill="#D19A6E"/><path d="M39.294 36.385a2.4 2.4 0 01-1.083.625 2.408 2.408 0 00-.624-2.325l-2.157-2.157v-1.361l1.707-.346 2.157 2.157c.941.94.941 2.466 0 3.407z" fill="#BC845E"/><path d="M35.43 32.528l-1.7 1.7-1.419-1.42a.4.4 0 010-.568l1.42-1.42 1.964.22-.265 1.488z" fill="#FFE07D"/><path d="M37.137 30.821l-1.707 1.707-1.42-1.419a.4.4 0 00-.562-.006l1.701-1.702a.402.402 0 01.569 0l1.42 1.42z" fill="#FFD064"/></g><defs><clipPath id="clip0"><path fill="#fff" d="M0 0h40v40H0z"/></clipPath></defs></svg>