<svg width="40" height="40" fill="none" xmlns="http://www.w3.org/2000/svg"><path d="M32.867 31.662H1.933A1.933 1.933 0 010 29.727V3.95c0-1.068.866-1.933 1.933-1.933h30.934c1.068 0 1.934.865 1.934 1.933v25.778a1.933 1.933 0 01-1.934 1.933z" fill="#EDEBED"/><path d="M1.289 29.728V2.126A1.939 1.939 0 000 3.95v25.778c0 1.068.866 1.933 1.933 1.933h30.934c.84 0 1.549-.54 1.815-1.289H1.933a.644.644 0 01-.644-.644z" fill="#DBD9DC"/><path d="M32.867 30.372H1.934a.644.644 0 01-.645-.644V9.105c0-.356.289-.644.645-.644h30.933c.356 0 .645.288.645.644v20.623a.644.644 0 01-.645.644zm-.644-24.489h-23.2a.644.644 0 110-1.289h23.2a.644.644 0 110 1.29z" fill="#fff"/><path d="M30.29 15.55H19.978a.644.644 0 01-.644-.644v-1.933c0-.356.288-.645.644-.645H30.29c.356 0 .644.289.644.645v1.933a.644.644 0 01-.644.644z" fill="#8CB4EB"/><path d="M27.712 18.772h-7.734a.644.644 0 110-1.289h7.734a.644.644 0 110 1.29z" fill="#867E88"/><path d="M24.49 21.35h-4.512a.644.644 0 110-1.289h4.512a.644.644 0 110 1.29z" fill="#9C969E"/><path d="M2.578 5.884a.644.644 0 100-1.29.644.644 0 000 1.29z" fill="#FF8087"/><path d="M4.512 5.884a.644.644 0 100-1.29.644.644 0 000 1.29z" fill="#FFD164"/><path d="M6.444 5.884a.644.644 0 100-1.29.644.644 0 000 1.29z" fill="#B4E6A0"/><path d="M18.144 25.366l-3.172-1.322a1.29 1.29 0 01-.793-1.19v-2.148H9.023v2.148c0 .52-.313.99-.793 1.19l-3.173 1.322c-.72.3-1.19 1.004-1.19 1.784v3.222h15.467V27.15c0-.78-.47-1.484-1.19-1.784z" fill="#C9C6CA"/><path d="M9.023 20.706v2.148c0 .119-.016.236-.047.347a5.1 5.1 0 005.25 0 1.288 1.288 0 01-.048-.347v-2.148H9.023z" fill="#B7B2B8"/><path d="M11.6 12.973c-2.135 0-3.867 1.442-3.867 3.222v2.578a3.867 3.867 0 007.734 0v-2.578c0-1.78-1.731-3.222-3.867-3.222z" fill="#DBD9DC"/><path d="M9.667 18.772V15.55c0-1.045.6-1.97 1.524-2.56-1.943.171-3.458 1.54-3.458 3.205v2.577a3.867 3.867 0 004.838 3.745 3.874 3.874 0 01-2.904-3.745z" fill="#C9C6CA"/><path d="M19.334 29.084h-11.6a2.578 2.578 0 01-2.578-2.578v-1.181l-.099.04a1.936 1.936 0 00-1.19 1.786v3.222h15.467v-1.289z" fill="#B7B2B8"/><path d="M30.934 14.261h-9.022a1.289 1.289 0 01-1.289-1.288v-.645h9.667c.356 0 .644.289.644.645v1.288z" fill="#A5CDFF"/><path d="M30.908 20.853l-7.812 2.717a.645.645 0 00-.43.672c.184 1.953 1.324 9.078 8.309 13.637.214.139.5.139.713 0 6.985-4.56 8.125-11.683 8.309-13.637a.645.645 0 00-.43-.672l-7.812-2.717a1.289 1.289 0 00-.847 0z" fill="#FFE17D"/><path d="M30.67 31.8a.644.644 0 01-.456-.189l-2.647-2.648a.644.644 0 11.911-.911l2.192 2.192 3.706-3.705a.644.644 0 11.911.911l-4.161 4.161a.645.645 0 01-.456.189z" fill="#fff"/><path d="M25.094 22.875l-1.998.695a.645.645 0 00-.43.672c.184 1.954 1.324 9.078 8.309 13.637.214.14.5.14.713 0 .42-.274.817-.556 1.195-.847-5.724-4.53-7.341-11.038-7.79-14.156z" fill="#FFD164"/></svg>