<svg width="40" height="40" fill="none" xmlns="http://www.w3.org/2000/svg"><g clip-path="url(#clip0)"><path d="M37.584 11.415l-7.219-7.233v28.984h9.662V17.287c0-2.204-.88-4.318-2.443-5.872z" fill="#FFB782"/><path d="M5.643 27.886L.185 13.718A2.76 2.76 0 011.77 10.15L27.53.227a2.76 2.76 0 013.568 1.584l5.457 14.168a2.76 2.76 0 01-1.584 3.568l-25.76 9.922a2.761 2.761 0 01-3.568-1.584z" fill="#FF7851"/><path d="M0 17.984V2.802A2.76 2.76 0 012.76.04h27.605a2.76 2.76 0 012.76 2.76v15.183a2.76 2.76 0 01-2.76 2.76H2.761A2.76 2.76 0 010 17.984z" fill="#2559DA"/><path d="M2.76 11.082h2.761v1.38h-2.76v-1.38zm0 4.142h2.761v1.38h-2.76v-1.38zm12.423 0h2.76v1.38h-2.76v-1.38zm-8.282-4.142h2.76v1.38h-2.76v-1.38zm4.141 0h2.76v1.38h-2.76v-1.38zm4.141 0h2.76v1.38h-2.76v-1.38zm13.112-8.28h1.38v2.07h-1.38v-2.07zm-2.761 0h1.38v2.07h-1.38v-2.07zm-2.761 0h1.38v2.07h-1.38v-2.07zm-2.759 0h1.38v2.07h-1.38v-2.07z" fill="#5EB3D1"/><path d="M27.605 33.167h12.421v6.901H27.604v-6.901z" fill="#03AA82"/><path d="M25.579 12.508a2.992 2.992 0 00-4.32 4.138l5.655 6.17a9.307 9.307 0 00.189 9.548l.502.803h8.97v-9.662L25.58 12.508z" fill="#FFB782"/><path d="M29.675 35.237h1.38v1.38h-1.38v-1.38z" fill="#03AA82"/><path d="M2.76 7.219V3.906c0-.61.495-1.104 1.105-1.104h3.312c.61 0 1.104.494 1.104 1.104v3.313c0 .61-.493 1.104-1.104 1.104H3.865c-.61 0-1.104-.494-1.104-1.104z" fill="#FACC56"/><path d="M2.76 4.872h2.071v1.38h-2.07v-1.38zm3.45 0h2.071v1.38h-2.07v-1.38z" fill="#FD7B2F"/></g><defs><clipPath id="clip0"><path fill="#fff" d="M0 0h40v40H0z"/></clipPath></defs></svg>