<svg width="40" height="40" fill="none" xmlns="http://www.w3.org/2000/svg"><path d="M2.81 5.57h34.38v4.804H2.81V5.57z" fill="#E6F7FE"/><path d="M2.81 5.57h5.22v4.804H2.81V5.57z" fill="#D5F1FE"/><path d="M37.19 22.145H2.81v7.139C5.926 35.631 12.452 40 20 40c7.547 0 14.074-4.37 17.19-10.716v-7.139z" fill="#E6F7FE"/><path d="M2.81 22.145v7.139a19.219 19.219 0 005.221 6.511v-13.65H2.81zm0-18.471h34.38v2.052H2.81V3.674z" fill="#D5F1FE"/><path d="M11.947 5.726H2.81V3.674h7.204c1.067 0 1.933.918 1.933 2.052z" fill="#11DFEF"/><path d="M2.81 3.674h5.22v2.052H2.81V3.674z" fill="#0AC6E5"/><path d="M37.085 0H2.915a.105.105 0 00-.105.105v3.688h34.38V.105A.105.105 0 0037.085 0z" fill="#615DF9"/><path d="M8.596 0H2.915a.105.105 0 00-.105.105v3.688h5.22V.859A.94.94 0 018.596 0z" fill="#3342AE"/><path d="M5.648 2.641a.783.783 0 01-.152-1.548.782.782 0 11.152 1.548z" fill="#F948B4"/><path d="M8.031 2.641a.782.782 0 11.781-.781c0 .43-.35.781-.78.781z" fill="#FECD0A"/><path d="M10.414 2.641a.782.782 0 11.001-1.561.782.782 0 010 1.561z" fill="#39DF74"/><path d="M34.933 2.482h-4.115a.586.586 0 110-1.171h4.115a.586.586 0 010 1.171zm-7.058 0H13.512a.586.586 0 010-1.171h14.363a.586.586 0 110 1.171z" fill="#AEAEFF"/><path d="M24.223 1.896c0-.323.262-.585.585-.585H13.512a.586.586 0 000 1.171h11.296a.586.586 0 01-.585-.586z" fill="#8181FC"/><path d="M8.91 8.318H6.527a.586.586 0 010-1.172H8.91a.586.586 0 110 1.172z" fill="#615DF9"/><path d="M33.578 8.318h-1.25a.586.586 0 110-1.172h1.25a.586.586 0 110 1.172zm-3.547 0h-1.25a.586.586 0 010-1.172h1.25a.586.586 0 110 1.172zm-3.548 0h-1.25a.586.586 0 010-1.172h1.25a.586.586 0 110 1.172zm-3.547 0h-1.25a.586.586 0 010-1.172h1.25a.586.586 0 110 1.172z" fill="#D5F1FE"/><path d="M2.81 10.128h34.38v12.264H2.81V10.128z" fill="#615DF9"/><path d="M2.81 10.128h5.22v12.264H2.81V10.128z" fill="#3342AE"/><path d="M20.092 27.58h-3.307a.586.586 0 010-1.172h3.307a.586.586 0 110 1.172zm3.123 2.247h-6.43a.586.586 0 110-1.172h6.43a.586.586 0 110 1.172zm6.353-2.247H26.26a.586.586 0 010-1.172h3.307a.586.586 0 110 1.172zm3.122 2.247h-6.43a.586.586 0 110-1.172h6.43a.586.586 0 110 1.172zM10.617 27.58H7.31a.586.586 0 110-1.172h3.307a.586.586 0 110 1.172zm3.122 2.247h-6.43a.586.586 0 110-1.172h6.43a.586.586 0 110 1.172z" fill="#11DFEF"/><path d="M17.866 12.98c4.344 7.172 9.73 5.978 15.749 9.412h3.575V10.127H15.76a18.92 18.92 0 012.106 2.853z" fill="#8181FC"/><path d="M37.19 18.503v-8.375H21.544c2.454 9.243 10.21 3.518 15.646 8.375zm-24.389 5.92H8.247a.94.94 0 01-.937-.938V21.22a.94.94 0 01.937-.938h4.554a.94.94 0 01.938.938v2.265a.94.94 0 01-.938.938zm9.476 0h-4.554a.94.94 0 01-.938-.938V21.22a.94.94 0 01.938-.938h4.554a.94.94 0 01.938.938v2.265a.94.94 0 01-.938.938zm9.475 0h-4.554a.94.94 0 01-.937-.938V21.22a.94.94 0 01.937-.938h4.554a.94.94 0 01.938.938v2.265a.94.94 0 01-.938.938z" fill="#AEAEFF"/><path d="M10.524 23.485V21.22a.94.94 0 01.938-.938H8.247a.94.94 0 00-.937.938v2.265a.94.94 0 00.937.938h3.215a.94.94 0 01-.938-.938zm9.476 0V21.22a.94.94 0 01.937-.938h-3.214a.94.94 0 00-.938.938v2.265a.94.94 0 00.938.938h3.214a.94.94 0 01-.937-.938zm9.475 0V21.22a.94.94 0 01.938-.938h-3.215a.94.94 0 00-.937.938v2.265a.94.94 0 00.937.938h3.215a.94.94 0 01-.938-.938z" fill="#8181FC"/><path d="M23.215 32.074h-6.43a.586.586 0 010-1.172h6.43a.586.586 0 010 1.172zm9.475 0h-6.43a.586.586 0 110-1.172h6.43a.586.586 0 110 1.172zm-18.951 0h-6.43a.586.586 0 110-1.172h6.43a.586.586 0 110 1.172z" fill="#11DFEF"/><path d="M13.739 34.321h-.688a.586.586 0 010-1.172h.688a.586.586 0 110 1.172z" fill="#D5F1FE"/><path d="M10.617 34.321H7.31a.586.586 0 110-1.172h3.307a.586.586 0 110 1.172z" fill="#11DFEF"/><path d="M23.215 34.321h-.689a.586.586 0 110-1.172h.689a.586.586 0 110 1.172z" fill="#D5F1FE"/><path d="M20.092 34.321h-3.307a.586.586 0 010-1.172h3.307a.586.586 0 110 1.172z" fill="#11DFEF"/><path d="M32.69 34.321h-.688a.586.586 0 010-1.172h.688a.586.586 0 110 1.172z" fill="#D5F1FE"/><path d="M29.568 34.321H26.26a.586.586 0 010-1.172h3.307a.586.586 0 110 1.172z" fill="#11DFEF"/></svg>