<svg width="40" height="40" fill="none" xmlns="http://www.w3.org/2000/svg"><path d="M34.887 9.374a.983.983 0 00-.986-.985H6.1a.983.983 0 00-.986.985v3.435h29.8V9.374h-.026z" fill="#4F5565"/><path d="M8.07 11.292a.719.719 0 100-1.438.719.719 0 000 1.438z" fill="#F0582F"/><path d="M10.466 11.292a.72.72 0 100-1.439.72.72 0 000 1.439z" fill="#FBD303"/><path d="M12.889 11.292a.719.719 0 100-1.438.719.719 0 000 1.438z" fill="#71D456"/><path d="M29.747 9.854H16.485c-.4 0-.72.32-.72.719 0 .399.32.719.72.719h13.262c.4 0 .719-.32.719-.72a.733.733 0 00-.719-.718z" fill="#333842"/><path d="M5.113 12.81v17.843c0 .559.453.985.986.985h27.803a.983.983 0 00.985-.986V12.81H5.113z" fill="#F1F3F7"/><path d="M20 23.968a4.634 4.634 0 100-9.268 4.634 4.634 0 000 9.268z" fill="#0090FF"/><path d="M20 18.748a1.651 1.651 0 100-3.302 1.651 1.651 0 000 3.302zm0 5.22a4.67 4.67 0 003.49-1.572A3.493 3.493 0 0020 19.041a3.493 3.493 0 00-3.488 3.355A4.669 4.669 0 0020 23.968z" fill="#FCFCFD"/><path d="M23.462 25.566h-6.95v.959h6.95v-.96zm-1.784 2.237H18.35v.959h3.328v-.959z" fill="#646B79"/><path d="M11.825 14.7h-8.31v12.144h8.31V14.7z" fill="#FFFFFC"/><path d="M8.149 15.925H4.74v.746h3.41v-.746z" fill="#FBD303"/><path d="M10.572 17.71H4.74v.746h5.832v-.746zm0 1.811H4.74v.746h5.832v-.746zm0 1.784H4.74v.746h5.832v-.746zm0 1.785H4.74v.745h5.832v-.746zm0 1.81H4.74v.746h5.832V24.9z" fill="#DEDEDF"/></svg>