<svg width="40" height="40" fill="none" xmlns="http://www.w3.org/2000/svg"><path d="M30.834 37.87c-.028-.142-1.746-8.773-1.765-8.861-.206-1-.765-1.765-1.586-2.258-.492-.297-.77-.344-1.09-.442l-5.858-2.047a.856.856 0 01-.578-.81v-1.794c-2.244 1.122-4.598 1.051-6.686.032v1.762a.856.856 0 01-.578.81l-2.409.825h-.002v.001L6.837 26.31l-.454.134c-.82.305-1.53.886-1.928 1.698-.276.56-.194.363-1.532 7.079-.496 2.565-.605 2.752-.543 3.325.172 1.602 1.82 1.435 1.865 1.454h24.739c.018-.006 2.174.158 1.85-2.13z" fill="#6C7D87"/><path d="M4.407 37.87l1.766-9.666c-.025.117.13-1.293 1.457-2.176-1.481.525-1.022.315-1.478.51-.86.388-1.527 1.048-1.855 1.978-.132.374-.047.045-1.374 6.704-.496 2.565-.605 2.752-.543 3.325C2.552 40.147 4.2 39.98 4.245 40h2.012c-1.42 0-2.033-.83-1.85-2.129z" fill="#566A75"/><path d="M7.887 40H4.245c-.047-.021-1.925.167-1.878-1.79.01-.418.063-.436.556-2.99l.028-.144h4.936V40z" fill="#DD9A5E"/><path d="M4.918 35.077H2.95l-.028.143c-.495 2.564-.546 2.572-.556 2.99-.047 1.951 1.84 1.773 1.878 1.79h2.012c-1.307 0-1.904-.688-1.878-1.79.004-.128.051-.395.539-3.133z" fill="#D18C54"/><path d="M13.271 21.38v3.372h.003v.12c0 .802.511 1.513 1.27 1.767 1.219.408 2.783.455 4.14 0a1.863 1.863 0 001.271-1.766v-.12h.002V21.38c-2.166 1.155-4.608 1.107-6.686 0z" fill="#DD9A5E"/><path d="M15.287 25.421h-.003v-3.086a7.332 7.332 0 01-2.013-.72v3.137h.003v.12c0 .802.511 1.513 1.27 1.768a6.22 6.22 0 001.184.268c-.512-.694-.434-1.433-.441-1.487z" fill="#D18C54"/><path d="M7.887 33.102a.604.604 0 00-.604.603V40h1.208v-6.294a.604.604 0 00-.604-.603z" fill="#566A75"/><path d="M36.16 40H16.613a1.477 1.477 0 01-1.476-1.477c0-.467.379-.846.846-.846h20.805c.468 0 .847.379.847.846 0 .816-.661 1.477-1.477 1.477z" fill="#C6C6C6"/><path d="M18.941 38.523c0-.467.379-.846.846-.846h-3.803a.846.846 0 00-.846.846c0 .816.66 1.477 1.476 1.477h3.803a1.477 1.477 0 01-1.476-1.477z" fill="#B7B7B7"/><path d="M34.878 24.752H17.894a.969.969 0 00-.966.966V36.71c0 .53.434.965.966.965h16.984a.969.969 0 00.966-.965V25.718a.969.969 0 00-.966-.966z" fill="#EDEDED"/><path d="M18.941 36.71V25.719a.97.97 0 01.966-.966h-2.012a.969.969 0 00-.966.966V36.71c0 .53.434.965.966.965h2.012a.969.969 0 01-.966-.965zm7.446-4.1a1.395 1.395 0 100-2.791 1.395 1.395 0 000 2.79z" fill="#DADADA"/><path d="M26.387 29.82c-1.064-.001-1.749 1.157-1.209 2.092.54.936 1.886.92 2.416-.001a1.393 1.393 0 01-1.207-2.09z" fill="#C6C6C6"/><path d="M16.432.01c-5.2.02-9.59 4.264-9.59 9.658v3.66H26.16V7.852c0-3.74-2.302-4.602-2.302-4.602C20.998-.278 16.437.01 16.437.01" fill="#4C4846"/><path d="M17.737.067C11.844-.603 7.048 3.844 6.85 9.287c-.015.391-.005.245-.008 4.04h2.301v-3.66c0-4.996 3.782-9.072 8.594-9.6z" fill="#3D3938"/><path d="M9.221 12.178c-1.211-.431-2.527.372-2.527 1.543 0 1.171 1.315 1.974 2.527 1.543v-3.086zm14.56 0c1.212-.431 2.527.372 2.527 1.543 0 1.171-1.315 1.974-2.527 1.543v-3.086z" fill="#DD9A5E"/><path d="M6.871 13.012c-.707 1.343.783 2.81 2.35 2.252v-1.419c-.914.326-1.936-.048-2.35-.833zm16.91.833v1.419c1.568.558 3.058-.909 2.35-2.252-.296.562-1.435 1.159-2.35.833z" fill="#D18C54"/><path d="M23.527 9.122a.365.365 0 01.332.362c0 6.195.004 5.728-.01 6.016a7.339 7.339 0 01-2.212 4.893c-4.593 4.478-12.258 1.302-12.488-4.98-.011-.276-.006-3.485-.006-3.476A2.365 2.365 0 0111.85 9.6c2.249.324 5.532.198 8.396-2.25a.608.608 0 01.929.168c.355.639 1.06 1.48 2.351 1.604z" fill="#EDAE6B"/><path d="M11.163 15.414c-.01-.238-.007-4.585-.006-5.812a2.363 2.363 0 00-2.013 2.335c0-.01-.005 3.2.006 3.477.17 4.631 4.38 7.574 8.423 7.005-3.319-.459-6.268-3.145-6.41-7.005z" fill="#DD9A5E"/></svg>