<svg width="24" height="24" fill="none" xmlns="http://www.w3.org/2000/svg"><path d="M22.147 18.242l-9.34 5.183c-.447.249-1.18.249-1.629 0L1.84 18.242c-.224-.125-.336-.289-.336-.453h-.099V6.21h21.079v11.58c0 .163-.112.327-.336.452z" fill="#FF473E"/><path d="M22.483 6.21v11.58c0 .163-.112.327-.336.452l-9.339 5.183c-.233.13-.543.19-.85.186.008-5.799.172-11.604-.008-17.4h10.533z" fill="#FF6E83"/><path d="M11.179 11.846l-9.34-5.184c-.447-.248-.447-.655 0-.904L11.18.575c.448-.249 1.181-.249 1.63 0l9.338 5.183c.448.249.448.656 0 .905l-9.339 5.183c-.448.249-1.181.249-1.63 0z" fill="#FFA9BA"/><path d="M18.332 3.475a.305.305 0 01-.16.266L6.981 9.705a.302.302 0 01-.049.021l-.037.021V20.88a.305.305 0 01-.453.266l-1.875-1.04a.305.305 0 01-.157-.267V9.006a1.242 1.242 0 01.465-.968l.01-.01a1.254 1.254 0 01.183-.118l10.863-5.79a.305.305 0 01.29.002l1.954 1.084a.305.305 0 01.157.269zm1.032 4.712a1.24 1.24 0 00-.349-.277L8.152 2.12a.304.304 0 00-.29.002L5.907 3.206a.305.305 0 00.005.535l11.19 5.964a.307.307 0 00.048.021l.038.021V20.88a.304.304 0 00.452.266l1.875-1.04a.304.304 0 00.157-.267V9.006c0-.302-.11-.593-.309-.819z" fill="#FFD4DE"/><path d="M15.732 6.426c0 .764-.938 1.32-2.23 1.32-.527 0-.995-.093-1.364-.254a.35.35 0 00-.298.009c-.385.194-.895.307-1.478.307-1.292 0-2.23-.555-2.23-1.32 0-.384.238-.716.639-.95a.354.354 0 00.146-.456c-.286-.604-.277-1.171.074-1.522a.99.99 0 01.719-.277c.203 0 .423.048.65.138a.357.357 0 00.46-.194c.234-.556.619-.898 1.08-.898.454 0 .834.33 1.068.87a.356.356 0 00.463.19c.236-.098.467-.15.679-.15.365 0 .592.15.719.277.344.344.36.898.088 1.491a.354.354 0 00.15.453c.417.235.665.573.665.966z" fill="#FF6E83"/></svg>