<svg width="24" height="25" fill="none" xmlns="http://www.w3.org/2000/svg"><path fill-rule="evenodd" clip-rule="evenodd" d="M12.05 23.908h-.005c-2 0-3.965-.502-5.71-1.454L0 24.115l1.695-6.192A11.928 11.928 0 01.1 11.95C.103 5.36 5.463 0 12.05 0a11.873 11.873 0 018.453 3.505A11.877 11.877 0 0124 11.959c-.003 6.587-5.361 11.947-11.95 11.95zm-5.422-3.617l.363.215a9.918 9.918 0 005.055 1.384h.004c5.474 0 9.93-4.455 9.932-9.932a9.873 9.873 0 00-2.906-7.027 9.865 9.865 0 00-7.022-2.912c-5.479 0-9.934 4.455-9.936 9.93a9.91 9.91 0 001.518 5.287l.236.375-1.003 3.666 3.76-.986zm11.033-5.76c.208.101.349.17.409.27.075.124.075.722-.174 1.42-.249.697-1.442 1.333-2.016 1.419-.514.077-1.165.109-1.88-.118-.434-.138-.99-.322-1.702-.63-2.8-1.208-4.691-3.921-5.049-4.434a3.297 3.297 0 00-.052-.074l-.003-.003c-.158-.21-1.216-1.624-1.216-3.086 0-1.375.675-2.096.986-2.428.022-.022.041-.043.059-.063.273-.298.597-.373.796-.373a11.857 11.857 0 01.64.011c.173 0 .39-.002.604.512l.33.8c.257.626.54 1.317.59 1.417.075.15.125.324.025.523l-.041.085c-.075.153-.13.265-.257.413-.05.058-.102.121-.153.184-.103.125-.206.25-.295.34-.15.148-.305.31-.13.609.173.299.773 1.276 1.66 2.068a7.712 7.712 0 002.204 1.393c.082.036.149.065.197.09.299.149.473.124.647-.076.174-.199.747-.872.946-1.17.199-.3.398-.25.671-.15.274.1 1.742.822 2.04.972l.164.08z" fill="#FDFDFD"/></svg>