<svg width="44" height="32" fill="none" xmlns="http://www.w3.org/2000/svg"><path d="M34.307 15.749v-.518c.17.038.254.131.254.279a.216.216 0 01-.073.171.257.257 0 01-.181.068zm0 4.878v.517a.257.257 0 00.181-.067.217.217 0 00.073-.172c0-.148-.085-.24-.254-.279z" fill="#212B3F"/><path fill-rule="evenodd" clip-rule="evenodd" d="M26.8 32c8.837 0 16-7.163 16-16s-7.163-16-16-16c-8.126 0-14.837 6.058-15.864 13.903.867-.92 1.97-1.38 3.313-1.38 1.25 0 2.147.271 2.693.813h.04a4.6 4.6 0 01-.02-.456V8.8h3.45v14.4h-3.231v-.911l.02-.575h-.04c-.652.99-1.642 1.486-2.972 1.486-.683 0-1.3-.117-1.852-.35C14.903 28.26 20.415 32 26.8 32zm-1.922-19.239h-3.452v6.616c0 1.347.326 2.324.978 2.932.665.594 1.556.891 2.673.891.692 0 1.33-.158 1.915-.475.585-.317 1.018-.746 1.297-1.288h.04l-.04.634V23.2H31.6V12.762h-3.45v4.516c0 .805-.187 1.479-.56 2.02-.372.528-.91.792-1.615.792-.732 0-1.097-.449-1.097-1.347v-5.981zm9.839.298a.855.855 0 00-.625-.259.863.863 0 00-.63.259c-.175.175-.262.41-.262.706 0 .143.026.281.076.414.051.134.12.244.205.33l.4-.213c-.137-.161-.205-.32-.205-.474a.41.41 0 01.423-.433.392.392 0 01.406.413c0 .155-.055.29-.165.407l.383.245a.732.732 0 00.192-.309c.044-.123.066-.25.066-.38 0-.296-.088-.531-.264-.706zm.01 1.809a.87.87 0 00-.635-.245.872.872 0 00-.627.255c-.177.17-.265.402-.265.696 0 .135.022.268.066.4.045.135.105.248.182.34l.4-.215c-.115-.175-.172-.334-.172-.478a.46.46 0 01.076-.262.355.355 0 01.228-.141v1.093c.08.009.139.013.178.013.243 0 .44-.072.592-.215.154-.142.23-.337.23-.585 0-.274-.084-.492-.253-.656zm-1.487 1.76h1.701v.558h-.148l-.106-.007v.007c.196.119.294.303.294.552 0 .414-.213.622-.638.622H33.24v-.582h.998c.15 0 .224-.064.224-.192a.332.332 0 00-.129-.282.534.534 0 00-.323-.094h-.77v-.582zm1.226 2.206h-.598a.7.7 0 00-.245.04.478.478 0 00-.178.111.665.665 0 00-.182.326 1.334 1.334 0 00-.03.175 1.242 1.242 0 000 .316h.496a.872.872 0 01-.003-.077c0-.207.072-.31.218-.31h.522v.364h.446v-.364h.488v-.564h-.488v-.24h-.446v.223zm-.374 1.184a.87.87 0 01.635.245c.169.164.254.382.254.656 0 .249-.077.444-.231.585a.826.826 0 01-.592.215c-.04 0-.099-.004-.178-.013v-1.093a.355.355 0 00-.228.141.463.463 0 00-.076.262c0 .144.057.303.172.478l-.4.215a1.01 1.01 0 01-.182-.34 1.26 1.26 0 01-.066-.4c0-.293.088-.525.265-.696a.873.873 0 01.627-.255zm.85 2.005H33.24v.582h.66c.161 0 .287.04.377.12.09.082.136.2.136.357a.45.45 0 01-.01.118h.561a.54.54 0 00-.116-.41.627.627 0 00-.3-.209v-.006l.106.006h.287v-.558z" fill="#212B3F"/><path d="M13.61 16.07c-.386.435-.579 1.03-.579 1.782 0 .753.186 1.36.559 1.822.372.462.858.693 1.456.693.572 0 1.05-.211 1.436-.634.386-.422.579-1.05.579-1.881 0-.66-.18-1.228-.539-1.704-.345-.488-.837-.732-1.476-.732a1.84 1.84 0 00-1.436.653z" fill="#212B3F"/><path fill-rule="evenodd" clip-rule="evenodd" d="M2.256 14.125C1.286 15.13.8 16.396.8 17.928c0 1.453.505 2.707 1.516 3.764 1.01 1.056 2.387 1.584 4.13 1.584.797 0 1.589-.132 2.373-.396.798-.264 1.47-.627 2.015-1.09l-1.277-2.396c-1.037.687-1.981 1.03-2.832 1.03a2.726 2.726 0 01-1.556-.456c-.44-.317-.719-.772-.838-1.366h6.483c.053-.476.08-.832.08-1.07 0-1.452-.426-2.634-1.277-3.545-.838-.925-1.995-1.387-3.47-1.387-1.623 0-2.92.508-3.89 1.525zm5.227 2.516H4.41c.226-1.017.778-1.525 1.655-1.525.426 0 .765.145 1.018.435.266.29.399.654.399 1.09z" fill="#212B3F"/></svg>