<svg width="54" height="40" fill="none" xmlns="http://www.w3.org/2000/svg"><path d="M42.883 19.686v-.647c.212.047.318.163.318.348a.27.27 0 01-.091.215.321.321 0 01-.227.084zm0 6.097v.647a.32.32 0 00.227-.084.27.27 0 00.09-.214c0-.185-.105-.301-.317-.349z" fill="#FACC56"/><path fill-rule="evenodd" clip-rule="evenodd" d="M33.5 40c11.045 0 20-8.954 20-20s-8.955-20-20-20C23.342 0 14.953 7.572 13.67 17.38c1.083-1.15 2.463-1.725 4.14-1.725 1.563 0 2.685.338 3.366 1.015h.05a5.725 5.725 0 01-.025-.57V11h4.314v18h-4.04v-1.139l.025-.718h-.05C20.637 28.381 19.399 29 17.736 29c-.853 0-1.625-.146-2.315-.438C18.628 35.325 25.518 40 33.5 40zm-2.404-24.048h-4.314v8.27c0 1.683.407 2.904 1.222 3.664.831.742 1.945 1.114 3.341 1.114.865 0 1.663-.198 2.395-.594.731-.396 1.271-.933 1.62-1.61h.05l-.05.793V29h4.14V15.952h-4.314v5.645c0 1.007-.233 1.849-.699 2.525-.465.66-1.138.99-2.02.99-.913 0-1.37-.56-1.37-1.683v-7.477zm12.299.372a1.069 1.069 0 00-.78-.324c-.309 0-.572.108-.789.324-.218.218-.326.512-.326.882 0 .18.032.352.095.517.063.169.148.306.256.412l.5-.265c-.171-.201-.257-.399-.257-.592a.513.513 0 01.529-.542.491.491 0 01.508.517.717.717 0 01-.207.508l.48.307c.107-.1.186-.23.239-.387a1.4 1.4 0 00.082-.475c0-.37-.11-.664-.33-.882zm.012 2.26a1.088 1.088 0 00-.792-.306 1.09 1.09 0 00-.785.32c-.22.213-.33.503-.33.87 0 .168.027.334.082.5.056.168.131.31.227.424l.5-.269c-.143-.218-.215-.417-.215-.597a.58.58 0 01.095-.327.444.444 0 01.285-.177v1.366c.1.011.174.017.223.017.303 0 .55-.09.74-.27.192-.176.288-.42.288-.73 0-.342-.106-.616-.318-.82zm-1.858 2.2h2.127v.699h-.186l-.132-.009v.009c.245.148.367.378.367.689 0 .518-.265.777-.797.777H41.55v-.727h1.247c.188 0 .281-.08.281-.24a.415.415 0 00-.161-.352.667.667 0 00-.404-.118h-.963v-.727zm1.532 2.758h-.747a.876.876 0 00-.306.05.598.598 0 00-.223.14.835.835 0 00-.227.408 1.743 1.743 0 00-.037.218 1.545 1.545 0 000 .395h.62a1.07 1.07 0 01-.005-.097c0-.258.091-.387.273-.387h.652v.454h.558v-.454h.61v-.706h-.61v-.298h-.558v.277zm-.467 1.48c.32 0 .584.103.794.307.211.204.317.478.317.82 0 .31-.096.554-.289.731-.19.18-.436.269-.739.269a2.24 2.24 0 01-.223-.017v-1.366a.444.444 0 00-.285.177.58.58 0 00-.095.327c0 .18.072.379.215.597l-.5.27a1.264 1.264 0 01-.227-.425 1.575 1.575 0 01-.082-.5c0-.367.11-.657.33-.87.22-.213.482-.32.785-.32zm1.062 2.507h-2.127v.727h.826c.201 0 .358.05.47.151.114.101.17.25.17.446a.559.559 0 01-.012.147h.702a.543.543 0 00.008-.084c0-.157-.051-.3-.153-.429a.784.784 0 00-.376-.26v-.009l.133.009h.359v-.698z" fill="#FACC56"/><path d="M17.012 20.087c-.482.544-.723 1.287-.723 2.228 0 .94.233 1.7.698 2.278.466.577 1.073.866 1.82.866.716 0 1.314-.264 1.796-.792s.723-1.312.723-2.352c0-.825-.224-1.535-.673-2.13-.432-.61-1.047-.915-1.845-.915-.715 0-1.314.272-1.796.817z" fill="#FACC56"/><path fill-rule="evenodd" clip-rule="evenodd" d="M2.82 17.657C1.607 18.91 1 20.495 1 22.41c0 1.816.632 3.384 1.895 4.704 1.264 1.321 2.984 1.981 5.162 1.981.997 0 1.986-.165 2.967-.495.998-.33 1.837-.784 2.519-1.362l-1.596-2.996c-1.297.859-2.477 1.288-3.54 1.288-.732 0-1.38-.19-1.946-.57-.549-.396-.898-.965-1.047-1.708h8.104c.066-.594.1-1.04.1-1.337 0-1.816-.532-3.293-1.596-4.432-1.047-1.155-2.494-1.733-4.34-1.733-2.027 0-3.648.636-4.862 1.907zM9.354 20.8h-3.84c.282-1.271.972-1.907 2.07-1.907.531 0 .955.182 1.27.545.333.363.5.817.5 1.362z" fill="#FACC56"/></svg>