<svg width="44" height="44" fill="none" xmlns="http://www.w3.org/2000/svg"><circle cx="22" cy="22" r="22" fill="#10A9FF"/><path d="M13.884 21.776c1.553-.855 3.285-1.568 4.904-2.286 2.785-1.174 5.581-2.329 8.406-3.403.55-.184 1.537-.363 1.634.452-.053 1.152-.271 2.298-.421 3.444-.38 2.52-.819 5.032-1.247 7.544-.147.837-1.195 1.27-1.866.734-1.611-1.088-3.236-2.166-4.827-3.28-.52-.53-.037-1.29.428-1.669 1.327-1.308 2.735-2.42 3.993-3.795.34-.82-.663-.13-.994.082-1.817 1.253-3.59 2.582-5.506 3.682-.979.539-2.12.079-3.098-.222-.877-.363-2.162-.729-1.406-1.283z" fill="#fff"/></svg>