<svg width="58" height="58" fill="none" xmlns="http://www.w3.org/2000/svg"><circle cx="29" cy="29" r="29" fill="#8005FB"/><path d="M33.655 26.746c-.079-.642-.276-1.145-.626-1.591-.454-.574-1.035-.918-1.895-1.122-.56-.136-.787-.12-.99.065-.188.173-.225.52-.08.746.1.163.218.222.543.286.434.08.733.183 1.006.339.578.334.848.857.876 1.703.014.397.048.519.187.66a.596.596 0 00.909-.1c.071-.117.082-.168.09-.437a4.283 4.283 0 00-.02-.55z" fill="#fff"/><path d="M35.92 27.468c-.114-1.964-.883-3.544-2.258-4.657a6.363 6.363 0 00-2.738-1.263c-.376-.075-1.068-.135-1.187-.1a.73.73 0 00-.341.262c-.075.12-.092.385-.028.539.103.257.294.348.83.395.826.072 1.679.362 2.323.792a4.872 4.872 0 011.697 1.945c.327.676.528 1.65.522 2.522-.001.315.047.494.174.624.192.2.47.244.717.11.273-.143.337-.395.289-1.169zm2.507 7.566a2.158 2.158 0 00-.192-.385c-.404-.61-2.572-2.306-3.654-2.861-.619-.318-1.077-.424-1.416-.324-.365.103-.557.273-1.17 1.033-.246.304-.499.59-.566.635-.166.115-.493.208-.724.208-.535-.003-1.505-.35-2.251-.805-.58-.353-1.323-.984-1.893-1.61-.673-.735-1.13-1.383-1.493-2.114-.467-.94-.586-1.514-.39-1.934.048-.106.112-.218.14-.253.03-.032.33-.28.663-.549.654-.52.76-.638.881-.994.154-.453.112-.915-.125-1.38a19.232 19.232 0 00-1.005-1.62c-.458-.654-1.598-2.052-1.826-2.242-.41-.333-.935-.39-1.515-.166-.611.237-1.758 1.16-2.248 1.806-.442.583-.612.997-.637 1.542-.023.45.015.636.253 1.21 1.854 4.503 4.621 8.099 8.423 10.954 1.986 1.491 4.045 2.627 6.181 3.403 1.246.452 1.787.475 2.425.103.269-.16.935-.844 1.306-1.341.615-.828.843-1.21.907-1.514.045-.209.01-.571-.074-.802z" fill="#fff"/><path d="M38.227 27.92a8.947 8.947 0 00-.619-3.039c-.385-1-.775-1.652-1.51-2.534-.697-.827-1.237-1.3-2.095-1.826-1.196-.732-2.652-1.217-4.283-1.42-.557-.072-.682-.067-.853.047-.33.216-.326.754.005.966.11.068.208.093.653.15.683.093 1.122.18 1.643.322 2.044.559 3.616 1.7 4.667 3.396.88 1.413 1.245 2.827 1.193 4.632-.018.61-.005.717.088.864.179.273.65.327.892.1.15-.138.178-.242.208-.764.014-.272.017-.674.01-.894z" fill="#fff"/></svg>