<svg width="44" height="44" fill="none" xmlns="http://www.w3.org/2000/svg"><circle cx="22" cy="22" r="22" fill="#4EBC5F"/><path fill-rule="evenodd" clip-rule="evenodd" d="M22.038 31.034h-.004a9.057 9.057 0 01-4.332-1.103l-4.806 1.26 1.287-4.697a9.048 9.048 0 01-1.21-4.532c.002-4.998 4.068-9.065 9.065-9.065a9.006 9.006 0 016.413 2.659 9.01 9.01 0 012.652 6.413c-.002 4.997-4.067 9.063-9.065 9.065zm-4.113-2.744l.275.163a7.524 7.524 0 003.835 1.05h.003c4.153 0 7.533-3.38 7.535-7.535a7.49 7.49 0 00-2.205-5.33 7.483 7.483 0 00-5.327-2.21c-4.156 0-7.536 3.38-7.538 7.534 0 1.424.398 2.81 1.152 4.01l.18.285-.762 2.78 2.852-.747zm8.37-4.37c.158.077.264.129.31.205.056.094.056.548-.132 1.077-.189.529-1.094 1.012-1.53 1.077-.39.058-.883.083-1.426-.09a13.01 13.01 0 01-1.291-.477c-2.124-.917-3.559-2.975-3.83-3.364l-.04-.056-.002-.003c-.12-.16-.923-1.231-.923-2.34 0-1.044.513-1.59.749-1.843l.044-.047a.832.832 0 01.604-.284c.151 0 .302.002.434.008l.051.001c.132 0 .297-.002.459.388l.25.607c.195.475.41 1 .448 1.075.057.114.095.246.02.397l-.033.064a1.28 1.28 0 01-.194.314c-.038.044-.077.092-.116.14-.078.094-.156.19-.224.257-.113.113-.231.235-.1.462.133.227.587.968 1.26 1.57a5.864 5.864 0 001.673 1.056l.15.067c.226.114.358.095.49-.056s.566-.662.717-.889c.151-.226.302-.188.51-.113.208.076 1.321.624 1.548.737l.124.06z" fill="#FDFDFD"/></svg>